PathFileType	4	(X/Y/Z)	D:\TRACE\spot_10-12-23\spot_arm_motion_2_2-v60.trc
DataRate	CameraRate	NumFrames	NumMarkers	Units	OrigDataRate	OrigDataStartFrame	OrigNumFrames
100.00	100.00	      39	9	mm	100.00	1	      7000
Frame#	Time	front left toe			Front right toe			aft left toe			aft right toe			Arm			FL body			FR body			AL Body			AR Body			
		X1	Y1	Z1	X2	Y2	Z2	X3	Y3	Z3	X4	Y4	Z4	X5	Y5	Z5	X6	Y6	Z6	X7	Y7	Z7	X8	Y8	Z8	X9	Y9	Z9	

1	0.000	-183.99565	20.98381	-88.31638	293.97000	22.77844	12.27867	-299.74039	22.64204	491.56619	170.33688	17.99589	593.05560	91.37892	821.77515	-157.46054	5.49498	559.96082	-155.58867	155.62984	564.90021	-125.44189	-171.99063	567.84656	710.81805	-25.01883	567.96643	742.44733	
2	0.010	-184.03374	20.92077	-88.24532	293.91971	22.72757	12.34107	-298.92966	22.11955	491.91263	170.06364	18.14017	592.58990	91.27102	821.33606	-157.70229	5.46467	559.54706	-155.68420	155.61137	564.57153	-125.50785	-171.95105	567.91034	710.80994	-24.92900	567.99860	742.39697	
3	0.020	-184.03592	20.94226	-88.19099	294.22009	22.97751	12.52936	-298.98468	22.16585	491.89902	169.94377	18.08548	592.56042	91.25960	820.92249	-157.83511	5.35650	559.09448	-155.75771	155.61632	564.21857	-125.50503	-171.95338	567.89673	710.56293	-24.84891	567.98645	742.35693	
4	0.030	-184.01880	20.99569	-88.15551	294.10226	22.99650	12.54383	-299.04361	22.17511	491.91965	170.03691	18.07734	592.60272	91.28596	820.61194	-158.05606	5.17929	558.94348	-155.65457	155.22302	564.24957	-125.85572	-171.88150	567.83789	710.52399	-24.78990	567.87195	742.03943	
5	0.040	-184.03967	20.95658	-88.17564	294.07764	23.08058	12.53297	-298.94247	22.10358	491.91364	170.05544	18.07416	592.57794	91.23564	820.24628	-158.30385	5.14075	558.38336	-155.81392	155.25687	563.75671	-125.88438	-171.89105	567.78864	710.40082	-24.75083	567.80719	742.11841	
6	0.050	-184.03415	20.89925	-88.17271	294.04773	23.07229	12.55693	-298.95700	22.07760	491.93631	170.07333	18.07358	592.59106	91.12238	819.87384	-158.55923	5.09714	558.15533	-155.94740	156.02252	563.17786	-125.70842	-171.89124	567.72095	710.30103	-24.68682	567.70081	742.07172	
7	0.060	-184.01881	20.92873	-88.14980	293.92511	22.72848	12.44501	-298.94016	22.06660	491.92349	170.07860	18.06745	592.57104	91.18102	819.59644	-158.68904	5.12051	557.78601	-156.17998	155.91646	562.94055	-125.81663	-171.80624	567.70398	710.24506	-24.47813	567.61578	741.91760	
8	0.070	-184.04247	20.97256	-88.14069	293.82513	22.71434	12.40680	-298.94080	22.11284	491.90372	170.03209	18.05093	592.58063	91.20469	819.30219	-158.83340	5.15129	557.43689	-156.31583	155.78821	562.69684	-125.99890	-171.78165	567.65356	710.19128	-24.42294	567.60522	741.85980	
9	0.080	-184.05450	20.93056	-88.09681	294.13516	23.14452	12.67641	-298.97150	22.13489	491.90149	170.01389	18.04090	592.52594	91.14838	818.96960	-159.03673	5.04317	557.22253	-156.42361	155.47879	562.33075	-126.14025	-171.84970	567.62976	710.08655	-24.40413	567.55981	741.78619	
10	0.090	-184.03047	20.94877	-88.09651	294.15698	23.22999	12.57080	-299.03033	22.18678	491.91467	170.00876	18.08279	592.56665	91.10091	818.79498	-159.19215	4.90585	557.11969	-156.60550	155.14755	562.45074	-126.63206	-171.77660	567.61560	709.98492	-24.15373	567.54840	741.64252	
11	0.100	-184.06187	20.97780	-88.10723	294.16837	23.05945	12.65388	-299.64905	22.33774	491.83167	170.00780	18.09386	592.52966	91.22391	818.51099	-159.30424	4.87643	556.85840	-156.63734	155.47308	561.87018	-126.53175	-171.85260	567.58978	709.81683	-24.45144	567.62518	741.51721	
12	0.110	-184.05612	20.96295	-88.12957	294.11560	23.04935	12.52909	-299.57751	22.07552	491.97598	170.06447	18.12471	592.56464	91.35724	818.22943	-159.47856	4.84676	556.56317	-156.77628	155.42867	561.55499	-126.61578	-171.88145	567.72693	710.12854	-24.29468	567.64325	741.47052	
13	0.120	-184.05161	20.97589	-88.10586	294.12485	23.10011	12.66354	-298.91241	22.09953	491.90518	170.01634	18.07388	592.52997	91.13641	817.94745	-159.69084	4.89283	556.24042	-156.89053	154.86073	561.66626	-127.11781	-171.78934	567.69324	709.96606	-24.38642	567.61017	741.29529	
14	0.130	-184.05403	20.95748	-88.08698	294.07892	23.20665	12.66125	-298.93936	22.10203	491.90820	169.98189	18.06769	592.56873	91.09654	817.72192	-159.87816	4.92109	555.94519	-157.00261	154.94141	561.36560	-127.16907	-171.95157	567.53094	709.46393	-25.15706	567.74097	741.17523	
15	0.140	-184.00586	21.01030	-88.10122	294.04190	23.15220	12.72191	-299.01120	22.15873	491.90430	169.99823	18.07651	592.57208	91.16995	817.50787	-160.01903	4.90812	555.70313	-157.13449	155.13722	561.07849	-127.17434	-171.90190	567.41150	709.36017	-25.47881	567.56519	740.87378	
16	0.150	-184.05682	20.98078	-88.07706	294.09439	23.11996	12.61810	-298.98676	22.13953	491.92334	170.02354	18.10032	592.58392	91.14885	817.24695	-160.29967	4.86914	555.43909	-157.21625	155.17700	560.84845	-127.29906	-171.93694	567.28351	709.25256	-25.58164	567.41046	740.70099	
17	0.160	-184.03804	20.94031	-88.07167	294.07669	23.08439	12.68336	-298.93509	22.08247	491.90109	170.09236	18.12836	592.58398	91.09138	817.02332	-160.52583	4.91615	555.22461	-157.31212	155.47519	560.38959	-127.09811	-171.96353	567.12982	709.12866	-23.85999	565.96252	741.45270	
18	0.170	-184.06812	20.93711	-88.07889	294.18115	23.12043	12.58650	-300.09821	23.00349	491.41187	170.00363	18.12942	592.56921	91.00597	816.92523	-160.62640	5.03708	555.11499	-157.43988	155.33508	560.44653	-127.48760	-171.95496	566.97589	709.07654	-24.83955	566.94617	740.43439	
19	0.180	-184.07796	20.95268	-88.09509	294.19720	23.20669	12.61888	-300.10590	22.94957	491.45981	169.99713	18.11036	592.55359	91.00222	816.85223	-160.72307	5.07515	554.99097	-157.57541	155.27196	560.28711	-127.69241	-171.87946	566.65271	709.12610	-24.95214	566.96069	740.60120	
20	0.190	-184.04880	20.94677	-88.03487	294.04236	23.24423	12.66084	-299.95612	22.89397	491.55545	170.00441	18.14589	592.57129	91.04295	816.77258	-160.79555	5.10466	554.88416	-157.73763	155.28453	560.20654	-127.78631	-172.13220	566.38531	709.27185	-24.97681	566.75085	740.43079	
21	0.200	-184.05046	20.96561	-88.04015	294.04172	23.23062	12.65950	-300.02142	22.95912	491.53763	169.96393	18.12858	592.58014	91.01678	816.59723	-160.91338	5.19445	554.74713	-157.93784	155.38480	560.00745	-127.90312	-172.21671	566.05615	709.12140	-25.03376	566.46924	740.29102	
22	0.210	-184.04350	20.94960	-88.04730	294.16644	23.19328	12.66668	-299.01355	22.08779	491.91699	170.03384	18.15855	592.61481	90.97741	816.37610	-161.06085	5.25878	554.55670	-158.18996	155.68259	559.85919	-128.22218	-171.94679	565.91748	708.43988	-25.08495	566.18005	740.09216	
23	0.220	-184.03958	20.90981	-88.03002	294.16052	23.07509	12.73395	-298.92337	22.03510	491.94012	170.04688	18.09272	592.58728	91.02222	816.17389	-161.16910	5.25818	554.38611	-158.41702	155.22195	560.41266	-129.57539	-171.73949	565.45703	708.02606	-25.96609	565.86047	739.69543	
24	0.230	-184.06999	20.89343	-88.02287	294.11368	23.26096	12.67039	-298.94312	22.10557	491.93082	169.99159	18.06634	592.58502	91.05804	816.04010	-161.28642	5.13376	554.44324	-158.54211	155.05760	560.48914	-129.95039	-171.78500	565.13837	707.82825	-25.89436	565.56873	739.39935	
25	0.240	-184.08249	20.98024	-88.06237	294.13940	23.24808	12.66343	-298.99872	22.12953	491.94138	169.97359	18.10493	592.58990	91.02141	815.90765	-161.40059	5.05315	554.13837	-158.85164	155.31541	559.72424	-129.43518	-171.71223	564.87897	707.69519	-26.65982	565.66431	738.36096	
26	0.250	-184.08824	20.95536	-88.00937	294.06140	23.23707	12.70709	-299.06268	22.17529	491.96848	169.93547	18.08969	592.60095	90.99464	815.72455	-161.57866	4.90469	553.98175	-159.07915	155.60016	559.16852	-129.18501	-171.49954	564.54779	707.63177	-24.70826	564.84021	739.06860	
27	0.260	-184.09105	20.84914	-87.97918	294.03299	23.22415	12.64498	-299.01605	22.16324	491.95267	169.95189	18.07531	592.59326	91.09312	815.53687	-161.79913	4.89018	553.69153	-159.25992	155.61801	558.90619	-129.33759	-171.34892	564.09790	707.44489	-24.56685	564.52386	738.91455	
28	0.270	-184.06656	20.84188	-87.97806	294.02002	23.09464	12.68152	-298.93231	21.68257	492.35916	169.97668	18.09187	592.56110	90.98772	815.26294	-162.17149	5.05647	553.39893	-159.50298	155.54649	558.75989	-129.44066	-171.28636	563.66394	707.46875	-24.44017	564.07166	738.77588	
29	0.280	-184.09755	20.87690	-88.00114	294.04846	23.19522	12.60868	-298.98901	22.10927	491.97662	169.98016	18.11116	592.58063	90.99670	815.09332	-162.40833	5.15296	553.12604	-159.63269	155.21960	558.97156	-130.11006	-171.38329	563.45465	706.68817	-24.36367	563.67963	738.64960	
30	0.290	-184.10551	20.90093	-88.00638	294.16150	23.21381	12.61028	-299.02374	22.18276	491.96460	170.00121	18.11100	592.59283	91.07337	814.95709	-162.54860	5.09219	552.96472	-159.89018	155.04976	558.74060	-130.27525	-171.13361	563.01013	706.76489	-21.81775	561.96039	739.56738	
31	0.300	-184.07838	20.91173	-88.00072	294.14240	23.21346	12.61252	-299.04776	22.18184	491.98019	170.34785	18.00454	593.14532	91.13951	814.76611	-162.72603	4.90787	552.87756	-160.17188	154.89220	558.43268	-130.64630	-170.99638	562.65802	706.58276	-23.26905	562.71930	738.36395	
32	0.310	-184.10364	20.84056	-87.98040	294.13101	23.09544	12.71262	-299.09595	22.21907	492.01422	170.04305	18.10628	592.59680	91.15201	814.55408	-162.94836	4.81041	552.72473	-160.44003	154.96260	558.06659	-131.10620	-170.96777	562.33118	706.44586	-23.69832	562.58557	737.53369	
33	0.320	-184.10541	20.78744	-87.95462	294.03418	23.18391	12.55553	-299.06363	22.18768	491.99423	169.99823	18.13355	592.59192	91.15523	814.34808	-163.12477	4.93075	552.51367	-160.63481	155.20964	557.66681	-130.90327	-170.89320	562.16211	706.11121	-23.97140	562.29071	737.35370	
34	0.330	-184.10120	20.85656	-87.98029	294.03140	23.18452	12.54000	-299.03342	22.13359	491.98495	170.02917	18.10924	592.58173	91.10445	814.32697	-163.45453	5.04667	552.38538	-160.86700	155.30014	557.46936	-131.05975	-170.80957	561.83173	705.94116	-23.68365	561.91260	737.26373	
35	0.340	-184.08731	20.89705	-88.01095	294.14490	23.20432	12.59041	-299.44583	22.38588	491.95801	170.02077	18.09646	592.59698	91.09875	814.06415	-163.40005	5.08716	552.15302	-161.05489	155.24704	557.25159	-131.08640	-170.84337	561.56067	705.98260	-23.57541	561.68372	737.20520	
36	0.350	-184.09343	20.89255	-88.00882	294.20340	23.19023	12.60613	-299.43820	22.41855	491.94244	169.99113	18.11930	592.59686	91.18473	813.88690	-163.63986	5.09042	551.83984	-161.34573	155.44762	557.02850	-131.20166	-170.88916	561.24182	705.66992	-23.57269	561.48651	737.07794	
37	0.360	-184.08052	20.82407	-87.96402	294.06744	23.04616	12.62389	-299.48849	22.44330	491.96136	169.96944	18.12081	592.62000	91.14563	813.61151	-163.98033	5.14087	551.64117	-161.63647	154.97031	557.58398	-132.18106	-171.07928	561.15570	704.74274	-23.22420	561.08771	736.89117	
38	0.370	-184.07707	20.80937	-87.93797	294.05743	23.00169	12.63026	-299.47897	22.42000	491.96262	169.98759	18.09671	592.59747	91.15511	813.35400	-164.21780	5.19109	551.47705	-161.87904	155.39551	556.92059	-131.95322	-170.96892	560.80811	704.83698	-23.62195	560.90533	736.54791	
39	0.380	-184.06429	20.82125	-87.95710	294.04993	23.17455	12.58128	-299.49438	22.42419	491.95251	170.00034	18.09064	592.61316	91.16414	813.26477	-164.35353	5.16854	551.30524	-162.15228	155.37326	556.77423	-132.20219	-170.93604	560.57947	704.61530	-23.64591	560.68042	736.21460	
